<svg xmlns="http://www.w3.org/2000/svg" width="920" height="170" viewBox="0 0 920 170" font-family="-apple-system, 'Segoe UI', Helvetica, Arial, sans-serif">
  <defs>
    <marker id="arrow" viewBox="0 0 10 10" refX="9" refY="5" markerWidth="7" markerHeight="7" orient="auto">
      <path d="M0 0L10 5L0 10z" fill="#8b949e"/>
    </marker>
    <g id="globe-gray" fill="none" stroke="#909090" stroke-width="1.5" stroke-linecap="round">
      <circle cx="11" cy="11" r="8.2"/><ellipse cx="11" cy="11" rx="3.9" ry="8.2"/><path d="M3.5 8h15M3.5 14h15"/>
    </g>
    <g id="globe-green">
      <g fill="none" stroke="#74c69d" stroke-width="1.5" stroke-linecap="round">
        <circle cx="11" cy="11" r="8.2"/><ellipse cx="11" cy="11" rx="3.9" ry="8.2"/><path d="M3.5 8h15M3.5 14h15"/>
      </g>
      <circle cx="16.2" cy="16.2" r="5" fill="#74c69d"/>
      <path d="M13.9 16.3l1.7 1.7 2.9-3.4" fill="none" stroke="#ffffff" stroke-width="1.5" stroke-linecap="round" stroke-linejoin="round"/>
    </g>
  </defs>

  <!-- step cards -->
  <rect x="8"   y="12" width="200" height="108" rx="10" fill="#161b22" stroke="#30363d"/>
  <rect x="244" y="12" width="200" height="108" rx="10" fill="#161b22" stroke="#30363d"/>
  <rect x="480" y="12" width="200" height="108" rx="10" fill="#161b22" stroke="#30363d"/>
  <rect x="716" y="12" width="200" height="108" rx="10" fill="#161b22" stroke="#30363d"/>

  <!-- arrows -->
  <path d="M216 66h20" stroke="#8b949e" stroke-width="2" marker-end="url(#arrow)"/>
  <path d="M452 66h20" stroke="#8b949e" stroke-width="2" marker-end="url(#arrow)"/>
  <path d="M688 66h20" stroke="#8b949e" stroke-width="2" marker-end="url(#arrow)"/>

  <!-- 1: tray bar with gray globe -->
  <rect x="33" y="50" width="150" height="32" rx="7" fill="#23262e" stroke="#3a3f4b"/>
  <circle cx="55" cy="66" r="2.5" fill="#8b919d"/>
  <circle cx="72" cy="66" r="2.5" fill="#8b919d"/>
  <circle cx="89" cy="66" r="2.5" fill="#8b919d"/>
  <use href="#globe-gray" x="148" y="55"/>
  <text x="108" y="146" text-anchor="middle" font-size="13" font-weight="600" fill="#e6edf3">1 · Idle in the tray</text>

  <!-- 2: connect dialog -->
  <rect x="264" y="24" width="160" height="84" rx="6" fill="#ffffff" stroke="#c9ced6"/>
  <text x="274" y="43" font-size="10" fill="#57606a">Portal address:</text>
  <rect x="274" y="50" width="140" height="20" rx="4" fill="#f6f8fa" stroke="#c9ced6"/>
  <text x="281" y="63" font-size="10" font-family="ui-monospace, 'SF Mono', Menlo, monospace" fill="#333333">vpn.example.com</text>
  <rect x="344" y="78" width="70" height="20" rx="4" fill="#1f6feb"/>
  <text x="379" y="91" text-anchor="middle" font-size="10" font-weight="600" fill="#ffffff">Connect</text>
  <text x="344" y="146" text-anchor="middle" font-size="13" font-weight="600" fill="#e6edf3">2 · Connect… &amp; portal</text>

  <!-- 3: browser SAML login -->
  <rect x="500" y="24" width="160" height="84" rx="6" fill="#ffffff" stroke="#c9ced6"/>
  <rect x="500" y="24" width="160" height="18" rx="6" fill="#eef0f3"/>
  <rect x="500" y="34" width="160" height="8" fill="#eef0f3"/>
  <circle cx="511" cy="33" r="3" fill="#ff5f57"/>
  <circle cx="522" cy="33" r="3" fill="#febc2e"/>
  <circle cx="533" cy="33" r="3" fill="#28c840"/>
  <text x="580" y="58" text-anchor="middle" font-size="10" font-weight="600" fill="#333333">Single Sign-On</text>
  <rect x="520" y="65" width="120" height="8" rx="3" fill="#eceff2"/>
  <rect x="520" y="77" width="120" height="8" rx="3" fill="#eceff2"/>
  <rect x="540" y="90" width="80" height="12" rx="3" fill="#1f6feb"/>
  <text x="580" y="99" text-anchor="middle" font-size="8" font-weight="600" fill="#ffffff">Sign in</text>
  <text x="580" y="146" text-anchor="middle" font-size="13" font-weight="600" fill="#e6edf3">3 · SAML in your browser</text>

  <!-- 4: connected green globe -->
  <use href="#globe-green" transform="translate(790,36) scale(2.4)"/>
  <text x="816" y="146" text-anchor="middle" font-size="13" font-weight="600" fill="#e6edf3">4 · Connected</text>
</svg>
